Coordinates
version=1
nRows=26
nColumns=24
inDegrees=yes

Units are S.I. units (second, meters, Newtons, ...)
Angles are in degrees.

endheader
time	pelvis_tilt	pelvis_list	pelvis_rotation	pelvis_tx	pelvis_ty	pelvis_tz	hip_flexion_r	hip_adduction_r	hip_rotation_r	knee_angle_r	ankle_angle_r	subtalar_angle_r	mtp_angle_r	hip_flexion_l	hip_adduction_l	hip_rotation_l	knee_angle_l	ankle_angle_l	subtalar_angle_l	mtp_angle_l	lumbar_extension	lumbar_bending	lumbar_rotation
      0.92033333	      1.59827959	     -3.13223585	     -1.85529693	     -0.16450111	      0.98922313	      0.29988293	    -14.51965498	      7.22825293	     -0.73624693	     -9.81211008	     12.57432712	     -6.53063845	     -4.77960865	     21.61556548	     -0.97992400	     -3.56426760	     -6.11678031	      0.00377529	     -2.24123995	      2.41246764	     -4.84961761	      6.93732136	      6.86906327
      0.92450000	      1.53735979	     -3.06635363	     -1.86866135	     -0.15862712	      0.98865866	      0.29960275	    -14.44100599	      7.11775565	     -0.70135850	    -10.53433304	     12.64632433	     -6.56361166	     -4.74326777	     21.61727176	     -0.83519403	     -3.40435990	     -6.31340266	     -0.26742324	     -2.40058933	      2.47662747	     -4.74517714	      6.86331121	      6.88556807
      0.92866667	      1.47468893	     -2.99327302	     -1.87017547	     -0.15272687	      0.98813023	      0.29931970	    -14.33420530	      7.00389336	     -0.67565845	    -11.30437109	     12.68974384	     -6.61010808	     -4.69984335	     21.63305189	     -0.68289600	     -3.23713317	     -6.59589005	     -0.55185972	     -2.58763665	      2.55327597	     -4.62735131	      6.76582296	      6.88668275
      0.93283333	      1.42029596	     -2.92326951	     -1.87225253	     -0.14682522	      0.98766937	      0.29900480	    -14.19873337	      6.88912717	     -0.66116552	    -12.14007388	     12.69910699	     -6.58920917	     -4.60117853	     21.62941011	     -0.52702953	     -3.00114005	     -6.91279125	     -0.86858728	     -2.93378385	      2.71915271	     -4.52902149	      6.70127800	      6.87451526
      0.93700000	      1.37668409	     -2.82429004	     -1.85200808	     -0.14084855	      0.98725395	      0.29869536	    -14.06526535	      6.75450533	     -0.65224853	    -12.99342342	     12.65390743	     -6.70306656	     -4.53907406	     21.63634329	     -0.34696701	     -2.84640656	     -7.32426347	     -1.16518538	     -3.11266096	      2.81627536	     -4.42129501	      6.55683997	      6.85277776
      0.94116667	      1.32019379	     -2.72799854	     -1.84056099	     -0.13487271	      0.98688209	      0.29837860	    -13.87589014	      6.61995353	     -0.63653728	    -13.92125024	     12.58105150	     -6.79400392	     -4.45575064	     21.65147793	     -0.16951311	     -2.65765032	     -7.76649197	     -1.48761605	     -3.41576254	      2.93228785	     -4.30496357	      6.43546929	      6.82502308
      0.94533333	      1.30199993	     -2.63743896	     -1.80876250	     -0.12890331	      0.98656552	      0.29797954	    -13.66941136	      6.47154201	     -0.76296692	    -14.94518444	     12.44576886	     -6.64665240	     -2.04666272	     21.62645977	      0.01441592	     -2.42301071	     -8.23394437	     -1.85488984	     -3.86239452	      5.81809311	     -4.24373147	      6.34485272	      6.78323426
      0.94950000	      1.23139104	     -2.55326216	     -1.79782026	     -0.12289480	      0.98628137	      0.29766726	    -13.41268389	      6.35922057	     -0.67717331	    -15.95552363	     12.23314577	     -6.87448691	     -1.98142506	     21.64984236	      0.17493083	     -2.22160989	     -8.72532597	     -2.21164718	     -4.21459556	      5.82006974	     -4.09699823	      6.23402371	      6.73475775
      0.95366667	      1.19001680	     -2.45218606	     -1.76906420	     -0.11687418	      0.98605924	      0.29729464	    -13.13676941	      6.21643631	     -0.69621905	    -17.05241828	     11.99579679	     -6.96937783	     -1.87415716	     21.64424590	      0.36108475	     -2.01247178	     -9.24466596	     -2.54021618	     -4.59846008	      5.83783183	     -3.98980517	      6.10892249	      6.68040988
      0.95783333	      1.14583269	     -2.34599177	     -1.73919365	     -0.11084511	      0.98586984	      0.29691728	    -12.81427669	      6.06411751	     -0.73922959	    -18.21969315	     11.69338499	     -7.02550977	     -1.73561907	     21.64019733	      0.54906709	     -1.81686172	     -9.78019777	     -2.85154177	     -4.96374585	      5.86448463	     -3.87907956	      5.97603539	      6.62026784
      0.96200000	      1.09668463	     -2.23409068	     -1.70521074	     -0.10481460	      0.98571664	      0.29650441	    -12.44332193	      5.89656944	     -0.81430166	    -19.45183893	     11.33139062	     -7.02814291	     -1.53246934	     21.64128372	      0.74449748	     -1.62292793	    -10.33063899	     -3.15944128	     -5.37175627	      5.90213089	     -3.76125955	      5.84276900	      6.55085001
      0.96616667	      1.09858335	     -2.09367915	     -1.65974923	     -0.09874296	      0.98566095	      0.29605717	    -12.09155026	      5.67688979	     -0.99393657	    -20.72086903	     10.76316203	     -6.93679265	      3.22755937	     21.57898845	      0.97130343	     -1.45593465	    -10.88082042	     -3.41972057	     -5.74286615	      6.70763584	     -3.69837414	      5.66521395	      6.50467582
      0.97033333	      1.04826669	     -1.97575288	     -1.64123675	     -0.09273521	      0.98559018	      0.29566873	    -11.63199312	      5.49632309	     -1.04470686	    -22.08759655	     10.29471395	     -7.03041582	      3.28982784	     21.57444510	      1.15748806	     -1.32353251	    -11.43961217	     -3.68422341	     -6.09301928	      6.69093753	     -3.58590985	      5.51791013	      6.40680003
      0.97450000	      1.00753997	     -1.84129500	     -1.61603480	     -0.08671929	      0.98557009	      0.29523498	    -11.13756307	      5.27859201	     -1.16944496	    -23.51360591	      9.70501828	     -6.96413200	      3.42574858	     21.54847877	      1.36482267	     -1.18300428	    -11.98796635	     -3.89154111	     -6.43211613	      6.67485556	     -3.48106260	      5.35339698	      6.32781813
      0.97866667	      0.98793655	     -1.68754249	     -1.59481414	     -0.08071210	      0.98560992	      0.29480033	    -10.62100133	      5.02656114	     -1.32283787	    -25.00247592	      9.04066594	     -6.84856653	      3.64210718	     21.48747538	      1.58792002	     -1.06597023	    -12.51924705	     -4.05783406	     -6.74670111	      6.65690382	     -3.39981414	      5.16659978	      6.24545198
      0.98283333	      0.96299543	     -1.51346139	     -1.59049101	     -0.07471826	      0.98567459	      0.29435953	    -10.04963438	      4.73529614	     -1.48035294	    -26.56327765	      8.32962439	     -6.67767948	      4.06984325	     21.41586701	      1.82769307	     -0.96070795	    -13.02887793	     -4.13480722	     -7.05385864	      6.62618155	     -3.31226231	      4.95698018	      6.15200353
      0.98700000	      0.96672484	     -1.33285320	     -1.57249310	     -0.06874031	      0.98582234	      0.29390959	     -9.48322774	      4.42733946	     -1.66970332	    -28.12665794	      7.37161311	     -6.67949924	      9.50641128	     21.31131794	      2.06993453	     -0.89691012	    -13.53264229	     -4.22850820	     -7.25164658	      6.20749701	     -3.26627649	      4.74037412	      6.08926934
      0.99116667	      0.95098512	     -1.16025146	     -1.56824493	     -0.06281220	      0.98595873	      0.29349039	     -8.85097010	      4.12629108	     -1.81904811	    -29.76172869	      6.44878457	     -6.56284469	      9.54838761	     21.23559391	      2.29151764	     -0.87437798	    -14.05854732	     -4.21869673	     -7.38402786	      6.21130198	     -3.19971591	      4.53427932	      6.01229575
      0.99533333	      0.95483590	     -0.95770778	     -1.57777450	     -0.05689649	      0.98616441	      0.29307699	     -8.20052829	      3.77786329	     -1.97365580	    -31.44274884	      5.46453528	     -6.44674779	      9.61701307	     21.10300080	      2.54088390	     -0.85616397	    -14.51626691	     -4.15980841	     -7.49657560	      6.20948076	     -3.15017140	      4.29510043	      5.93594870
      0.99950000	      0.93777043	     -0.75422981	     -1.58123688	     -0.05105769	      0.98633604	      0.29265197	     -7.48688726	      3.42082368	     -2.13300597	    -33.16886796	      4.44314084	     -6.24702119	      9.74689482	     21.01232931	      2.79134638	     -0.85086734	    -15.01021675	     -4.06139044	     -7.63841801	      6.19766762	     -3.09856024	      4.04359923	      5.84964762
      1.00366667	      0.93372815	     -0.52593419	     -1.59865329	     -0.04522998	      0.98656783	      0.29224057	     -6.75912062	      3.02625260	     -2.27668661	    -34.91774959	      3.36190767	     -6.09724498	      9.90806015	     20.87473463	      3.06139194	     -0.86670232	    -15.44160082	     -3.91081674	     -7.72476826	      6.17762886	     -3.05359415	      3.77323172	      5.76737919
      1.00783333	      0.92230451	     -0.29181123	     -1.62690895	     -0.03945741	      0.98680000	      0.29185568	     -5.98881558	      2.62074548	     -2.39894976	    -36.70089045	      2.26711704	     -5.93225646	     10.15748646	     20.73199900	      3.33227703	     -0.89437150	    -15.84556388	     -3.68258650	     -7.79679994	      6.13764529	     -3.00509680	      3.49651348	      5.67769511
      1.01200000	      0.98174687	     -0.02448039	     -1.65447755	     -0.03370199	      0.98716799	      0.29150064	     -5.28651624	      2.18312923	     -2.49252229	    -38.46712878	      1.13303904	     -5.95987377	     10.23070524	     20.48549301	      3.63229963	     -0.95801496	    -16.19269480	     -3.45596419	     -7.76858046	      6.12713033	     -3.05030575	      3.15975592	      5.60493217
      1.01616667	      0.99098031	      0.23493716	     -1.68204404	     -0.02801056	      0.98746710	      0.29113685	     -4.49908128	      1.74651404	     -2.58630902	    -40.25263142	     -0.03038221	     -5.89978208	     10.31104196	     20.28965471	      3.92307287	     -1.02623022	    -16.52681785	     -3.19404259	     -7.75140337	      6.11182874	     -3.03172424	      2.85428576	      5.52341089
      1.02033333	      0.95122249	      0.47514811	     -1.70587634	     -0.02240232	      0.98768550	      0.29076139	     -3.62943204	      1.32643662	     -2.67817845	    -42.05516644	     -1.14741294	     -5.74215641	     10.52757392	     20.15550235	      4.19213397	     -1.10835133	    -16.87312191	     -2.88630898	     -7.75623369	      6.04865469	     -2.96170495	      2.58290013	      5.42031742
      1.02450000	      0.98297182	      0.75697475	     -1.73351733	     -0.01679447	      0.98805479	      0.29043757	     -2.83884519	      0.87425666	     -2.72349692	    -43.82043111	     -2.23881910	     -5.82266150	     10.57736279	     19.89204516	      4.50281233	     -1.19200933	    -17.11259805	     -2.59105032	     -7.68064730	      6.03155511	     -2.98408866	      2.23398361	      5.33549408
